<svg width="101" height="100" viewBox="0 0 101 100" fill="none" xmlns="http://www.w3.org/2000/svg">
<rect x="0.980469" width="100" height="100" rx="50" fill="#5A1AB7"/>
<path d="M36.1367 47.125H28.3242C26.957 47.125 25.9805 48.1992 25.9805 49.4688V72.9062C25.9805 74.2734 26.957 75.25 28.3242 75.25H36.1367C37.4062 75.25 38.4805 74.2734 38.4805 72.9062V49.4688C38.4805 48.1992 37.4062 47.125 36.1367 47.125ZM32.2305 71.3438C30.8633 71.3438 29.8867 70.3672 29.8867 69C29.8867 67.7305 30.8633 66.6562 32.2305 66.6562C33.5 66.6562 34.5742 67.7305 34.5742 69C34.5742 70.3672 33.5 71.3438 32.2305 71.3438ZM63.4805 33.2578C63.4805 26.0312 58.793 25.25 56.4492 25.25C54.3984 25.25 53.5195 29.1562 53.1289 30.9141C52.543 33.0625 52.0547 35.2109 50.5898 36.6758C47.4648 39.8984 45.8047 43.9023 41.8984 47.7109C41.7031 48.0039 41.6055 48.2969 41.6055 48.5898V69.4883C41.6055 70.0742 42.0938 70.5625 42.6797 70.6602C44.2422 70.6602 46.293 71.5391 47.8555 72.2227C50.9805 73.5898 54.7891 75.25 59.4766 75.25H59.7695C63.9688 75.25 68.9492 75.25 70.9023 72.418C71.7812 71.2461 71.9766 69.7812 71.4883 68.0234C73.1484 66.3633 73.9297 63.2383 73.1484 60.6992C74.8086 58.4531 75.0039 55.2305 74.0273 52.9844C75.1992 51.8125 75.9805 49.957 75.8828 48.1992C75.8828 45.1719 73.3438 42.4375 70.1211 42.4375H60.1602C60.9414 39.7031 63.4805 37.3594 63.4805 33.2578Z" fill="white"/>
</svg>
