<svg width="40" height="84" viewBox="0 0 40 84" fill="none" xmlns="http://www.w3.org/2000/svg">
<path d="M0 8C0 3.58172 3.58172 0 8 0H40V84H8C3.58172 84 0 80.4183 0 76V8Z" fill="#C2C2C2" fill-opacity="0.25"/>
<g clip-path="url(#clip0_1_196)">
<path d="M17.0252 42C17.0252 41.8 17.0502 41.606 17.1002 41.418C17.1502 41.23 17.2169 41.074 17.3002 40.95L21.9002 34.05C22.0835 33.775 22.3169 33.6375 22.6002 33.6375C22.8835 33.6375 23.1169 33.775 23.3002 34.05C23.4835 34.325 23.5752 34.675 23.5752 35.1C23.5752 35.525 23.4835 35.875 23.3002 36.15L19.4002 42L23.3002 47.85C23.4835 48.125 23.5752 48.475 23.5752 48.9C23.5752 49.325 23.4835 49.675 23.3002 49.95C23.1169 50.225 22.8835 50.3625 22.6002 50.3625C22.3169 50.3625 22.0835 50.225 21.9002 49.95L17.3002 43.05C17.2002 42.9 17.1292 42.7375 17.0872 42.5625C17.0452 42.3875 17.0245 42.2 17.0252 42Z" fill="#54595F"/>
</g>
<defs>
<clipPath id="clip0_1_196">
<rect width="36" height="24" fill="white" transform="matrix(0 1 -1 0 32 24)"/>
</clipPath>
</defs>
</svg>
