<svg width="28" height="28" viewBox="0 0 28 28" fill="none" xmlns="http://www.w3.org/2000/svg">
<path d="M25 0H3C1.3125 0 0 1.375 0 3V25C0 26.6875 1.3125 28 3 28H25C26.625 28 28 26.6875 28 25V3C28 1.375 26.625 0 25 0ZM25 25H3V3H25V25ZM22.75 9.9375C23 9.625 23 9.1875 22.75 8.875L21.3125 7.4375C21.0625 7.125 20.5625 7.125 20.25 7.4375L11.4375 16.1875L7.6875 12.4375C7.375 12.125 6.9375 12.125 6.625 12.4375L5.1875 13.8125C4.9375 14.125 4.9375 14.625 5.1875 14.875L10.875 20.625C11.1875 20.9375 11.625 20.9375 11.9375 20.625L22.75 9.9375Z" fill="#2E3192"/>
</svg>
